<?xml version="1.0" standalone="no"?>
<!DOCTYPE svg PUBLIC "-//W3C//DTD SVG 20010904//EN"
 "http://www.w3.org/TR/2001/REC-SVG-20010904/DTD/svg10.dtd">
<svg version="1.0" xmlns="http://www.w3.org/2000/svg"
 width="700.000000pt" height="700.000000pt" viewBox="0 0 700.000000 700.000000"
 preserveAspectRatio="xMidYMid meet">
<metadata>
Created by potrace 1.14, written by Peter Selinger 2001-2017
</metadata>
<g transform="translate(0.000000,700.000000) scale(0.100000,-0.100000)"
fill="#000000" stroke="none">
<path d="M3279 6996 c-2 -2 -48 -7 -102 -10 -53 -4 -103 -9 -110 -11 -6 -2
-37 -6 -67 -10 -93 -10 -338 -62 -470 -100 -488 -140 -938 -384 -1325 -718
-84 -72 -300 -289 -371 -372 -191 -224 -365 -493 -497 -768 -26 -54 -47 -100
-47 -102 0 -2 -11 -29 -25 -59 -14 -30 -25 -61 -25 -68 0 -8 -4 -18 -9 -23
-11 -13 -83 -233 -115 -354 -33 -122 -70 -306 -81 -401 -3 -25 -8 -54 -10 -65
-20 -96 -27 -591 -12 -745 9 -80 25 -203 32 -241 3 -13 7 -41 10 -64 15 -103
72 -326 125 -486 176 -532 463 -996 860 -1389 58 -58 132 -127 165 -155 33
-27 66 -56 74 -64 8 -7 49 -39 90 -70 42 -31 78 -59 81 -62 6 -6 160 -111 175
-119 6 -3 53 -30 105 -61 135 -80 218 -123 350 -181 151 -66 245 -101 425
-157 35 -11 268 -68 305 -75 14 -2 52 -9 85 -15 195 -35 341 -46 610 -46 183
0 336 8 425 21 366 54 639 128 934 251 122 52 338 160 394 198 20 14 40 25 45
25 4 0 13 5 20 10 7 6 64 44 127 86 239 158 471 360 660 573 36 41 70 79 75
85 25 26 146 188 197 261 305 439 520 1001 588 1530 21 170 25 248 24 490 -1
227 -8 327 -40 547 -3 22 -33 168 -49 238 -33 148 -100 353 -172 530 -51 123
-184 387 -233 460 -9 14 -43 66 -75 115 -273 422 -668 801 -1115 1072 -197
119 -504 261 -690 318 -30 10 -65 21 -76 25 -60 23 -323 88 -421 104 -29 5
-220 32 -288 41 -47 6 -550 16 -556 11z m511 -1790 c13 -3 42 -8 65 -11 243
-34 548 -169 756 -335 80 -63 225 -218 293 -312 74 -103 181 -313 220 -428
118 -356 120 -737 6 -1092 -35 -106 -31 -98 -99 -240 -63 -131 -83 -161 -646
-963 -247 -352 -485 -692 -529 -755 -45 -63 -95 -135 -113 -160 -17 -25 -61
-88 -98 -140 -36 -52 -93 -133 -126 -180 -47 -67 -121 -175 -135 -198 -3 -4
-123 -3 -174 2 -235 21 -471 66 -643 122 l-77 26 67 65 c57 54 198 191 568
548 28 28 157 152 286 277 129 124 274 265 324 312 49 47 85 86 78 86 -7 0
-34 -5 -60 -10 -89 -19 -117 -21 -303 -24 -144 -3 -209 0 -292 14 -352 59
-659 223 -921 491 -253 260 -414 616 -452 1004 -8 79 -8 300 0 349 8 45 15 50
-85 -59 -35 -38 -106 -117 -159 -173 -52 -57 -103 -112 -112 -123 -22 -26
-166 -184 -204 -225 -16 -17 -66 -71 -110 -119 -44 -49 -85 -93 -90 -99 -6 -6
-56 -60 -110 -121 -55 -60 -109 -119 -120 -131 -11 -12 -62 -67 -114 -123
l-94 -102 -14 33 c-38 87 -77 203 -104 305 -31 121 -34 135 -49 233 -6 36 -13
76 -15 90 -3 14 -8 57 -11 95 -3 39 -8 72 -10 74 -3 3 98 84 356 286 56 44
128 100 159 125 66 52 207 163 586 460 294 231 396 310 765 601 269 212 383
288 535 359 273 128 516 180 820 174 88 -1 171 -5 185 -8z"/>
<path d="M3458 4615 c-2 -2 -25 -6 -53 -9 -76 -9 -94 -12 -170 -31 -115 -29
-281 -106 -375 -174 -45 -32 -168 -139 -198 -171 -112 -123 -212 -324 -259
-522 -18 -77 -25 -319 -11 -410 21 -141 105 -348 185 -454 155 -206 377 -358
610 -418 105 -27 117 -28 253 -31 188 -4 321 23 487 101 198 91 363 238 504
445 282 415 236 985 -109 1351 -158 168 -351 266 -612 313 -36 7 -247 15 -252
10z"/>
</g>
</svg>
