<svg xmlns="http://www.w3.org/2000/svg" width="1280" height="32" fill="none"><g fill="#1D2130" opacity=".6"><path d="M21.356 14.139a3.838 3.838 0 0 0-1.098 3.075l-.019-.019a4.564 4.564 0 0 1-2.977 4.667 4.555 4.555 0 0 1-1.95.262l.02.019a3.86 3.86 0 0 0-4.16 4.511 3.862 3.862 0 0 0 5.445 2.828 3.86 3.86 0 0 0 2.2-3.855l.02.018a4.564 4.564 0 0 1 2.977-4.667 4.558 4.558 0 0 1 1.95-.261l-.02-.02a3.851 3.851 0 0 0 4.152-3.249 3.855 3.855 0 0 0-4.89-4.288 3.851 3.851 0 0 0-1.647.979h-.003Z"/><path d="m13.614 19.667-.02-.02a3.81 3.81 0 0 0 4.174-4.172l.02.019a4.564 4.564 0 0 1 2.977-4.667 4.557 4.557 0 0 1 1.949-.262l-.02-.019a3.859 3.859 0 0 0 4.163-4.51 3.863 3.863 0 0 0-3.138-3.139 3.858 3.858 0 0 0-4.507 4.165l-.02-.02a4.562 4.562 0 0 1-4.925 4.93l.018.02a3.807 3.807 0 0 0-3.97 2.51c-.19.532-.26 1.1-.203 1.662l-.02-.019a4.564 4.564 0 0 1-4.926 4.929l.02.019a3.859 3.859 0 0 0-4.164 4.51 3.862 3.862 0 0 0 5.445 2.83 3.86 3.86 0 0 0 2.2-3.857l.02.02a4.563 4.563 0 0 1 4.927-4.93Z"/><path d="M6.58 17.56a3.835 3.835 0 0 0 1.097-3.076l.02.019a4.563 4.563 0 0 1 2.978-4.668 4.557 4.557 0 0 1 1.95-.26l-.02-.02a3.857 3.857 0 0 0 4.162-4.508 3.861 3.861 0 0 0-5.443-2.83 3.86 3.86 0 0 0-2.201 3.854l-.019-.019a4.563 4.563 0 0 1-4.926 4.93l.019.018a3.852 3.852 0 0 0-3.965 5.157 3.855 3.855 0 0 0 4.704 2.381 3.852 3.852 0 0 0 1.646-.979H6.58ZM39.09 7.087h3.117v15.175H39.09V7.087ZM43.972 17.066a5.511 5.511 0 0 1 3.384-5.106 5.505 5.505 0 0 1 7.522 4 5.512 5.512 0 0 1-2.338 5.663 5.504 5.504 0 0 1-3.061.93 5.441 5.441 0 0 1-5.098-3.376 5.45 5.45 0 0 1-.409-2.111Zm7.896 0a2.393 2.393 0 0 0-2.896-2.271 2.39 2.39 0 0 0-.815 4.33c.392.26.852.399 1.322.399a2.33 2.33 0 0 0 2.39-2.458ZM67.408 11.868v9.87c0 3.493-2.722 4.969-5.486 4.969a5.31 5.31 0 0 1-4.924-2.52l2.66-1.538a2.374 2.374 0 0 0 2.368 1.31 2.07 2.07 0 0 0 2.348-2.225v-.95a3.69 3.69 0 0 1-3.034 1.351 5.279 5.279 0 0 1-5.114-5.28 5.284 5.284 0 0 1 5.114-5.28 3.688 3.688 0 0 1 3.034 1.352v-1.06l3.034.001Zm-3.033 4.989a2.522 2.522 0 0 0-2.944-2.588 2.518 2.518 0 0 0-1.908 3.425 2.52 2.52 0 0 0 2.339 1.578 2.348 2.348 0 0 0 2.34-1.456c.124-.304.183-.63.173-.96ZM69.173 17.066a5.51 5.51 0 0 1 6.568-5.428 5.506 5.506 0 0 1 4.338 4.323 5.512 5.512 0 0 1-2.337 5.662 5.504 5.504 0 0 1-3.062.93 5.44 5.44 0 0 1-5.098-3.376 5.45 5.45 0 0 1-.409-2.111Zm7.897 0a2.392 2.392 0 1 0-2.39 2.458 2.33 2.33 0 0 0 2.39-2.458ZM81.64 9.083a1.872 1.872 0 0 1 3.193-1.323 1.872 1.872 0 0 1-1.323 3.194 1.888 1.888 0 0 1-1.87-1.871Zm.315 2.785h3.118v10.395h-3.122l.004-10.395ZM98.532 17.066a5.222 5.222 0 0 1-4.966 5.487 3.896 3.896 0 0 1-3.095-1.268v5.135h-3.117V11.868h3.117v.977a3.9 3.9 0 0 1 3.094-1.268 5.215 5.215 0 0 1 4.967 5.489Zm-3.117 0a2.475 2.475 0 0 0-2.993-2.357 2.472 2.472 0 0 0-1.757 3.38 2.474 2.474 0 0 0 2.278 1.513 2.372 2.372 0 0 0 2.472-2.536ZM108.15 19.144c0 2.39-2.077 3.41-4.321 3.41a4.547 4.547 0 0 1-4.467-2.475l2.7-1.538a1.707 1.707 0 0 0 1.763 1.226c.747 0 1.122-.228 1.122-.643 0-1.145-5.112-.54-5.112-4.137 0-2.267 1.912-3.41 4.073-3.41a4.541 4.541 0 0 1 4.051 2.224l-2.659 1.435a1.513 1.513 0 0 0-1.392-.915c-.54 0-.873.21-.873.582.004 1.185 5.115.395 5.115 4.24ZM119.536 11.868v10.395h-3.117v-.977a3.553 3.553 0 0 1-2.97 1.268c-2.099 0-3.883-1.496-3.883-4.305v-6.38h3.117v5.924c-.026.247.002.497.082.733a1.723 1.723 0 0 0 .996 1.041c.232.091.481.13.729.116 1.143 0 1.932-.665 1.932-2.142v-5.67l3.114-.003ZM137.409 15.88v6.382h-3.117V16.15c0-1.04-.499-1.704-1.496-1.704-1.039 0-1.621.728-1.621 1.954v5.862h-3.116V16.15c0-1.04-.499-1.704-1.497-1.704-1.039 0-1.62.728-1.62 1.954v5.862h-3.117V11.867h3.117v.956a3.185 3.185 0 0 1 2.784-1.247 3.091 3.091 0 0 1 2.722 1.372 3.425 3.425 0 0 1 3.013-1.372c2.385.002 3.948 1.706 3.948 4.304ZM140.045 11.804a2.313 2.313 0 1 0 0-4.626 2.313 2.313 0 0 0 0 4.626Z"/></g><g fill="#1D2130" opacity=".6"><path d="M271.648 7.635h3.166v15.317h-3.166V7.635ZM276.586 17.705c0-1.102.326-2.18.936-3.095a5.544 5.544 0 0 1 2.491-2.05 5.516 5.516 0 0 1 6.041 1.221 5.583 5.583 0 0 1-.874 8.566 5.52 5.52 0 0 1-3.086.923 5.448 5.448 0 0 1-3.918-1.62 5.495 5.495 0 0 1-1.59-3.945Zm7.935 0a2.41 2.41 0 0 0-1.528-2.187 2.397 2.397 0 0 0-2.6.564 2.423 2.423 0 0 0 .392 3.7c.395.263.857.403 1.33.403a2.336 2.336 0 0 0 1.731-.718 2.373 2.373 0 0 0 .654-1.762h.021ZM300.126 12.458v9.975c0 3.519-2.743 5.013-5.518 5.013a5.255 5.255 0 0 1-2.835-.564 5.292 5.292 0 0 1-2.114-1.98l2.67-1.547a2.398 2.398 0 0 0 2.384 1.325 2.099 2.099 0 0 0 1.709-.565 2.129 2.129 0 0 0 .655-1.682v-.965a3.713 3.713 0 0 1-3.05 1.357 5.262 5.262 0 0 1-3.73-1.552 5.314 5.314 0 0 1 0-7.496 5.262 5.262 0 0 1 3.73-1.552 3.713 3.713 0 0 1 3.05 1.357v-1.06l3.049-.064Zm-3.049 5.035a2.555 2.555 0 0 0-.375-1.441 2.523 2.523 0 0 0-3.907-.502 2.55 2.55 0 0 0 .332 3.944c.419.284.912.437 1.417.437a2.353 2.353 0 0 0 1.806-.654 2.377 2.377 0 0 0 .727-1.784ZM301.909 17.705c0-1.101.325-2.177.934-3.093a5.55 5.55 0 0 1 2.488-2.05 5.516 5.516 0 0 1 6.038 1.212 5.58 5.58 0 0 1-.851 8.563 5.52 5.52 0 0 1-3.08.933 5.457 5.457 0 0 1-3.929-1.615 5.528 5.528 0 0 1-1.6-3.95Zm7.935 0a2.431 2.431 0 0 0-.437-1.326 2.407 2.407 0 0 0-2.48-.972 2.414 2.414 0 0 0-1.853 1.92 2.427 2.427 0 0 0 1.042 2.46c.395.262.859.4 1.332.398a2.333 2.333 0 0 0 1.731-.718 2.358 2.358 0 0 0 .654-1.762h.011ZM314.433 9.649a1.888 1.888 0 0 1 1.16-1.743 1.87 1.87 0 0 1 2.046.409 1.891 1.891 0 0 1-.284 2.903 1.873 1.873 0 0 1-1.044.318 1.898 1.898 0 0 1-1.322-.559 1.914 1.914 0 0 1-.556-1.328Zm.306 2.809h3.166v10.494h-3.166V12.458ZM331.452 17.705a5.296 5.296 0 0 1-.301 2.054 5.299 5.299 0 0 1-2.725 3.014 5.26 5.26 0 0 1-2.007.497 3.907 3.907 0 0 1-3.165-1.283v5.184h-3.165V12.458h3.165v.986a3.908 3.908 0 0 1 3.165-1.272 5.281 5.281 0 0 1 4.723 3.489c.236.654.341 1.349.31 2.044Zm-3.165 0a2.51 2.51 0 0 0-.451-1.373 2.487 2.487 0 0 0-2.566-1.008 2.487 2.487 0 0 0-1.92 1.986 2.51 2.51 0 0 0 1.078 2.548c.409.27.889.414 1.379.412a2.373 2.373 0 0 0 1.812-.724 2.399 2.399 0 0 0 .668-1.841ZM341.085 19.804c0 2.417-2.11 3.445-4.347 3.445a4.56 4.56 0 0 1-2.629-.558 4.591 4.591 0 0 1-1.865-1.944l2.722-1.547a1.705 1.705 0 0 0 1.762 1.24c.749 0 1.129-.233 1.129-.657 0-1.156-5.139-.541-5.139-4.177 0-2.29 1.921-3.434 4.094-3.434a4.583 4.583 0 0 1 4.136 2.237l-2.722 1.441a1.544 1.544 0 0 0-1.403-.922c-.549 0-.876.212-.876.583 0 1.208 5.138.413 5.138 4.293ZM352.554 12.458v10.494h-3.165v-.986a3.593 3.593 0 0 1-2.975 1.304c-2.111 0-3.915-1.516-3.915-4.346v-6.466h3.166v5.989a1.742 1.742 0 0 0 1.091 1.792c.234.091.484.131.734.116 1.139 0 1.941-.678 1.941-2.12v-5.777h3.123ZM370.491 16.507v6.445h-3.165v-6.17c0-1.06-.496-1.716-1.498-1.716-1.003 0-1.636.731-1.636 1.971v5.915h-3.165v-6.17c0-1.06-.496-1.716-1.498-1.716-1.003 0-1.636.731-1.636 1.971v5.915h-3.165V12.458h3.165v.965a3.233 3.233 0 0 1 2.807-1.251 3.08 3.08 0 0 1 2.733 1.378 3.44 3.44 0 0 1 3.028-1.378c2.469 0 4.03 1.717 4.03 4.335ZM252.794 4.879V.374h-14.139v30.952h14.139v-4.505a10.894 10.894 0 0 1-7.722-3.213 10.997 10.997 0 0 1-3.199-7.758c0-2.91 1.151-5.7 3.199-7.758a10.894 10.894 0 0 1 7.722-3.213Z"/><path d="M252.794 4.879v21.942c2.896 0 5.673-1.156 7.721-3.213a10.997 10.997 0 0 0 3.199-7.758c0-2.91-1.151-5.7-3.199-7.758a10.893 10.893 0 0 0-7.721-3.213ZM373.15 12.394a2.327 2.327 0 0 0 2.322-2.332 2.327 2.327 0 0 0-2.322-2.332 2.326 2.326 0 0 0-2.321 2.332 2.326 2.326 0 0 0 2.321 2.332Z"/></g><g fill="#1D2130" opacity=".6"><path d="M508.063 9.635h3.166V22.37h-3.166V9.635Zm4.421 7.927c0-3.15 1.942-5.03 4.938-5.03 2.997 0 4.938 1.88 4.938 5.03 0 3.15-1.899 5.04-4.938 5.04-3.039 0-4.938-1.837-4.938-5.04Zm6.7 0c0-1.732-.686-2.75-1.762-2.75s-1.751 1.05-1.751 2.75c0 1.701.664 2.73 1.751 2.73 1.087 0 1.762-.966 1.762-2.72v-.01Zm4.368 5.429h3.039a1.632 1.632 0 0 0 1.709.945c1.203 0 1.836-.651 1.836-1.596v-1.764h-.063a3.004 3.004 0 0 1-2.88 1.722c-2.311 0-3.841-1.754-3.841-4.767 0-3.014 1.456-4.914 3.883-4.914a3.036 3.036 0 0 1 2.912 1.848V12.71h3.165v9.555c0 2.3-2.036 3.728-5.043 3.728-2.796 0-4.537-1.25-4.717-2.993v-.01Zm6.595-5.44c0-1.532-.707-2.498-1.826-2.498-1.118 0-1.804.955-1.804 2.499 0 1.543.676 2.415 1.804 2.415 1.129 0 1.826-.85 1.826-2.405v-.01Zm4.357 0c0-3.15 1.942-5.029 4.938-5.029 2.997 0 4.949 1.88 4.949 5.03 0 3.15-1.899 5.04-4.949 5.04-3.049 0-4.938-1.827-4.938-5.03v-.01Zm6.7 0c0-1.732-.685-2.75-1.762-2.75-1.076 0-1.698 1.06-1.698 2.772 0 1.711.664 2.73 1.741 2.73 1.076 0 1.719-.977 1.719-2.73v-.021Zm4.39-7.129a1.594 1.594 0 0 1 .249-.9 1.613 1.613 0 0 1 1.642-.724 1.614 1.614 0 0 1 1.298 1.234 1.594 1.594 0 0 1-.651 1.665 1.62 1.62 0 0 1-.892.29 1.551 1.551 0 0 1-1.162-.414 1.523 1.523 0 0 1-.484-1.13v-.02Zm0 2.31h3.165v9.64h-3.165v-9.64Zm14.655 4.82c0 3.15-1.403 4.945-3.809 4.945a3.027 3.027 0 0 1-1.759-.43 3.007 3.007 0 0 1-1.195-1.355h-.063v4.746h-3.166V12.711h3.166v1.722h.063a3.018 3.018 0 0 1 1.172-1.39 3.04 3.04 0 0 1 1.761-.468c2.427.042 3.872 1.848 3.872 4.998l-.042-.021Zm-3.165 0c0-1.533-.707-2.51-1.815-2.51s-1.815.987-1.825 2.51c-.011 1.522.717 2.499 1.825 2.499s1.815-.956 1.815-2.478v-.021Zm8.599-5.04c2.627 0 4.221 1.239 4.294 3.223h-2.88c0-.682-.57-1.113-1.446-1.113-.875 0-1.266.336-1.266.83 0 .493.348.65 1.055.798l2.026.41c1.931.409 2.754 1.186 2.754 2.645 0 1.995-1.825 3.276-4.516 3.276-2.69 0-4.452-1.28-4.59-3.244h3.05c.095.714.664 1.134 1.593 1.134.928 0 1.35-.305 1.35-.809s-.295-.609-1.055-.766l-1.825-.389c-1.889-.388-2.88-1.386-2.88-2.856.021-1.89 1.719-3.118 4.336-3.118v-.021Zm15.099 9.838h-3.05v-1.795h-.063a2.735 2.735 0 0 1-1.048 1.495 2.761 2.761 0 0 1-1.758.51 3.377 3.377 0 0 1-2.603-1.007 3.346 3.346 0 0 1-.943-2.615V12.71h3.166v5.502c0 1.145.591 1.754 1.572 1.754a1.62 1.62 0 0 0 1.548-1.14c.067-.22.086-.45.056-.677v-5.439h3.165l-.042 9.64Zm1.53-9.639h3.059v1.859h.064a2.79 2.79 0 0 1 1.028-1.486 2.815 2.815 0 0 1 1.726-.551 2.53 2.53 0 0 1 1.757.527c.499.389.832.95.933 1.573h.063a2.964 2.964 0 0 1 1.127-1.557 2.986 2.986 0 0 1 1.849-.543 3.083 3.083 0 0 1 2.316.936 3.044 3.044 0 0 1 .849 2.34v6.562h-3.165V16.65c0-1.05-.475-1.533-1.361-1.533a1.386 1.386 0 0 0-1.333.972 1.362 1.362 0 0 0-.049.582v5.701h-3.007v-5.764c0-.966-.475-1.491-1.34-1.491a1.419 1.419 0 0 0-1.35.987c-.059.19-.078.39-.054.588v5.68h-3.165l.053-9.66ZM499.211 10.212a13.921 13.921 0 0 0-2.11-3.38 14.262 14.262 0 0 0-4.67-3.72 14.327 14.327 0 0 0-16.65 2.831 14.204 14.204 0 0 0-3.164 5.05 14.138 14.138 0 0 0 .882 11.605 14.241 14.241 0 0 0 3.892 4.52 13.835 13.835 0 0 0 3.377 1.92 14.183 14.183 0 0 0 5.349 1.05 14.344 14.344 0 0 0 10.093-4.177 14.204 14.204 0 0 0 4.183-10.05c.002-1.944-.4-3.867-1.182-5.649Zm-13.105-5.701c1.648 0 3.276.358 4.77 1.05a4.666 4.666 0 0 1-1.14.325 6.056 6.056 0 0 0-3.409 1.7 6.008 6.008 0 0 0-1.708 3.393 3.149 3.149 0 0 1-.932 1.897 3.174 3.174 0 0 1-1.928.885 6.058 6.058 0 0 0-3.409 1.7 6.008 6.008 0 0 0-1.708 3.393 3.046 3.046 0 0 1-.834 1.827 11.294 11.294 0 0 1 .675-10.92 11.362 11.362 0 0 1 4.136-3.869 11.438 11.438 0 0 1 5.498-1.402l-.011.02Zm-8.725 18.7c.126-.115.253-.22.379-.346a5.743 5.743 0 0 0 1.71-3.392 3.056 3.056 0 0 1 .918-1.91 2.988 2.988 0 0 1 1.909-.904 6.056 6.056 0 0 0 3.409-1.7 6.003 6.003 0 0 0 1.709-3.392 3.057 3.057 0 0 1 .918-2.006 3.033 3.033 0 0 1 1.931-.871 5.797 5.797 0 0 0 3.165-1.502 11.065 11.065 0 0 1 2.49 2.92.904.904 0 0 1-.137.146 3.035 3.035 0 0 1-1.91.924 6.037 6.037 0 0 0-3.413 1.697 5.986 5.986 0 0 0-1.704 3.396 3.149 3.149 0 0 1-.915 1.91 3.171 3.171 0 0 1-1.924.904 6.09 6.09 0 0 0-3.422 1.697 6.032 6.032 0 0 0-1.726 3.395 3.291 3.291 0 0 1-.517 1.439 11.455 11.455 0 0 1-2.87-2.405Zm8.725 4.053a11.492 11.492 0 0 1-3.165-.44 6.042 6.042 0 0 0 .675-2.1 3.145 3.145 0 0 1 .911-1.909 3.171 3.171 0 0 1 1.917-.906 6.054 6.054 0 0 0 3.415-1.697 6.006 6.006 0 0 0 1.713-3.395 3.145 3.145 0 0 1 .911-1.908 3.171 3.171 0 0 1 1.917-.906 6.045 6.045 0 0 0 2.701-1.05 11.325 11.325 0 0 1-1.982 9.814 11.395 11.395 0 0 1-3.988 3.263 11.46 11.46 0 0 1-5.025 1.182v.052Z"/></g><g fill="#1D2130" opacity=".6"><path d="M733.09 23.543a2.8 2.8 0 0 1-1.753-.499 1.629 1.629 0 0 1-.661-1.362V12.04a.263.263 0 0 1 .013-.121.272.272 0 0 1 .291-.18h1.763c.2 0 .294.103.294.3v8.893c0 .395.179.593.546.593a1.53 1.53 0 0 0 .462-.052c.21 0 .325.062.336.25l.157 1.3a.27.27 0 0 1-.141.292.272.272 0 0 1-.111.03c-.386.126-.79.193-1.196.197ZM743.007 22.43a4.973 4.973 0 0 1-6.297 0 4.143 4.143 0 0 1-1.215-2.927c0-1.096.437-2.149 1.215-2.928a4.995 4.995 0 0 1 6.297 0 4.202 4.202 0 0 1 1.186 2.923c0 1.089-.425 2.136-1.186 2.922v.01Zm-4.639-1.372a2.25 2.25 0 0 0 3.002 0 2.318 2.318 0 0 0 0-3.058 2.247 2.247 0 0 0-3.002 0 2.318 2.318 0 0 0 0 3.058ZM753.901 15.723c.199 0 .294.103.294.301v7.457a3.388 3.388 0 0 1-1.165 2.673 4.434 4.434 0 0 1-3.054 1.04 4.944 4.944 0 0 1-2.844-.78 3.111 3.111 0 0 1-1.375-2.08c0-.208 0-.302.283-.302h1.763a.389.389 0 0 1 .347.24c.114.315.342.578.64.738.363.185.767.278 1.175.27a1.876 1.876 0 0 0 1.354-.478 1.742 1.742 0 0 0 .493-1.3v-.656a3.537 3.537 0 0 1-2.183.677 4.106 4.106 0 0 1-2.98-1.134 4.14 4.14 0 0 1-1.18-2.891c0-1.08.423-2.116 1.18-2.892a4.113 4.113 0 0 1 2.98-1.123 3.55 3.55 0 0 1 2.236.718v-.166a.264.264 0 0 1 .074-.22.273.273 0 0 1 .22-.082l1.742-.01Zm-4.072 5.948a1.859 1.859 0 0 0 1.437-.613c.349-.447.539-.996.539-1.56 0-.565-.19-1.114-.539-1.56a1.83 1.83 0 0 0-1.427-.604 1.903 1.903 0 0 0-1.459.614 2.195 2.195 0 0 0-.566 1.56c-.019.568.18 1.121.556 1.55a1.896 1.896 0 0 0 1.459.613ZM763.251 22.43a4.99 4.99 0 0 1-3.148 1.117 4.99 4.99 0 0 1-3.148-1.117 4.21 4.21 0 0 1-1.187-2.927c0-1.091.425-2.14 1.187-2.928a5 5 0 0 1 3.148-1.113 5 5 0 0 1 3.148 1.113 4.201 4.201 0 0 1 1.186 2.923c0 1.089-.425 2.136-1.186 2.922v.01Zm-4.649-1.372a2.105 2.105 0 0 0 1.511.572 2.113 2.113 0 0 0 1.501-.572 2.348 2.348 0 0 0 0-3.058 2.099 2.099 0 0 0-1.501-.572 2.113 2.113 0 0 0-1.511.572 2.348 2.348 0 0 0 0 3.058ZM768.226 13.954a1.53 1.53 0 0 1-2.005 0 1.261 1.261 0 0 1-.398-.915 1.257 1.257 0 0 1 .398-.915 1.565 1.565 0 0 1 2.005 0 1.248 1.248 0 0 1 .294 1.414c-.068.157-.168.299-.294.416Zm.22 9.59a2.84 2.84 0 0 1-1.752-.5 1.634 1.634 0 0 1-.651-1.362v-5.658a.268.268 0 0 1 .182-.289.274.274 0 0 1 .122-.013h1.764c.199 0 .293.104.293.302v4.909c0 .395.179.593.536.593.159.005.318-.012.472-.052.21 0 .325.062.336.25l.157 1.3a.26.26 0 0 1-.052.217.276.276 0 0 1-.2.105 4.002 4.002 0 0 1-1.207.197ZM776.391 15.473c.551-.022 1.1.067 1.616.26.515.193.987.486 1.385.863a4.24 4.24 0 0 1 0 5.814 4.085 4.085 0 0 1-3.001 1.133 3.63 3.63 0 0 1-2.193-.676v3.755c0 .197-.105.29-.305.29h-1.763a.254.254 0 0 1-.224-.068.248.248 0 0 1-.07-.222v-8.528a.533.533 0 0 0-.368-.592.552.552 0 0 0-.251-.022h-.346c-.231 0-.347-.083-.347-.25v-1.227a.333.333 0 0 1 .242-.343c.363-.13.747-.194 1.133-.187.385-.034.772.047 1.11.232.339.186.614.467.79.808a3.56 3.56 0 0 1 2.592-1.04Zm-1.637 5.585a2.002 2.002 0 0 0 1.448.613 2.013 2.013 0 0 0 1.448-.613 2.236 2.236 0 0 0 .578-1.591 2.207 2.207 0 0 0-.578-1.592 2.004 2.004 0 0 0-1.448-.613 2.015 2.015 0 0 0-1.448.613 2.282 2.282 0 0 0-.556 1.591c-.022.581.177 1.149.556 1.592ZM785.5 23.543a5.097 5.097 0 0 1-2.697-.645 2.546 2.546 0 0 1-1.217-1.84c0-.208.073-.312.304-.312h1.543a.4.4 0 0 1 .346.229c.221.561.798.842 1.721.842.322.014.643-.05.934-.187a.606.606 0 0 0 .357-.51c0-.27-.168-.457-.504-.582a5.714 5.714 0 0 0-1.228-.26 11.807 11.807 0 0 1-1.469-.26 2.421 2.421 0 0 1-1.228-.697 2.209 2.209 0 0 1-.174-2.563c.161-.26.374-.485.626-.661a4.352 4.352 0 0 1 2.539-.666 4.67 4.67 0 0 1 2.477.614 2.322 2.322 0 0 1 1.155 1.633c0 .208-.095.312-.284.312h-1.553a.33.33 0 0 1-.315-.188 1.044 1.044 0 0 0-.546-.55 1.858 1.858 0 0 0-.902-.209 1.837 1.837 0 0 0-.892.177.524.524 0 0 0-.336.479.662.662 0 0 0 .504.613c.403.15.822.255 1.249.312.49.064.977.154 1.458.27.471.106.898.349 1.228.697a1.948 1.948 0 0 1 .514 1.425 2.065 2.065 0 0 1-.976 1.81 4.618 4.618 0 0 1-2.634.717ZM800.203 23.023a.277.277 0 0 1-.135.286.291.291 0 0 1-.106.037c-.383.124-.783.19-1.186.197a2.348 2.348 0 0 1-2.099-.904 3.82 3.82 0 0 1-2.676.904 3.281 3.281 0 0 1-2.456-.946 3.402 3.402 0 0 1-.934-2.506v-4.067c0-.198.095-.302.294-.302h1.763c.2 0 .294.104.294.302v3.755c-.019.467.142.925.451 1.279a1.583 1.583 0 0 0 1.207.489 1.755 1.755 0 0 0 1.26-.458 1.656 1.656 0 0 0 .472-1.238v-3.827c0-.198.094-.302.294-.302h1.784c.199 0 .294.104.294.302v4.898c0 .406.178.604.524.604.163.006.326-.012.483-.052a.277.277 0 0 1 .234.041.26.26 0 0 1 .08.092c.02.036.031.076.032.116l.126 1.3ZM816.879 23.023c.01.038.011.076.003.114a.25.25 0 0 1-.046.104.264.264 0 0 1-.198.105c-.39.125-.797.192-1.207.197a2.818 2.818 0 0 1-1.752-.499 1.614 1.614 0 0 1-.704-1.362v-2.444a1.827 1.827 0 0 0-.44-1.28 1.493 1.493 0 0 0-1.176-.488 1.325 1.325 0 0 0-1.049.457 1.84 1.84 0 0 0-.399 1.227v3.838c0 .198-.094.302-.294.302h-1.774a.273.273 0 0 1-.304-.302v-3.754a1.911 1.911 0 0 0-.409-1.28 1.36 1.36 0 0 0-1.05-.488 1.532 1.532 0 0 0-1.154.457c-.3.338-.455.778-.43 1.227v3.838a.277.277 0 0 1-.078.225.28.28 0 0 1-.227.077h-1.71c-.2 0-.294-.104-.294-.302v-4.898a.537.537 0 0 0-.369-.592.547.547 0 0 0-.25-.022h-.347c-.231 0-.346-.083-.346-.25v-1.227a.339.339 0 0 1 .059-.214.34.34 0 0 1 .182-.129 3.18 3.18 0 0 1 1.134-.187 1.986 1.986 0 0 1 1.868.957 3.58 3.58 0 0 1 2.666-.957 3.035 3.035 0 0 1 2.487 1.102 3.463 3.463 0 0 1 1.249-.857c.476-.191.988-.275 1.5-.245a3.345 3.345 0 0 1 2.488.946 3.374 3.374 0 0 1 .934 2.507v2.007c0 .395.178.593.514.593.163.007.325-.01.483-.052.217 0 .332.083.346.25l.094 1.3ZM693.818 14.37a14.23 14.23 0 0 1 5.095-7.78 14.45 14.45 0 0 1 8.848-3.02c3.207 0 6.321 1.064 8.848 3.02a14.229 14.229 0 0 1 5.094 7.78h-1.259a10.235 10.235 0 0 0-5.951 1.8 3.04 3.04 0 0 1-.315.197h-.147a3.04 3.04 0 0 1-.315-.197 10.74 10.74 0 0 0-5.955-1.8c-2.122 0-4.195.627-5.956 1.8a3.04 3.04 0 0 1-.315.197h-.147a3.04 3.04 0 0 1-.315-.197 10.234 10.234 0 0 0-5.95-1.8h-1.26Zm24.359 6.521a3.555 3.555 0 0 1 2.267-.738h1.689v-3.338h-1.689a6.74 6.74 0 0 0-4.02 1.268 3.844 3.844 0 0 1-4.534 0 7.18 7.18 0 0 0-4.077-1.267 7.18 7.18 0 0 0-4.077 1.267 3.844 3.844 0 0 1-4.534 0 6.737 6.737 0 0 0-4.072-1.268h-1.742v3.338h1.69c.819-.022 1.62.24 2.267.738a7.163 7.163 0 0 0 8.144 0 3.577 3.577 0 0 1 2.266-.738 3.535 3.535 0 0 1 2.267.738 7.186 7.186 0 0 0 8.155 0Zm0 5.97a3.555 3.555 0 0 1 2.267-.738h1.689v-3.339h-1.689a6.738 6.738 0 0 0-4.02 1.269 3.844 3.844 0 0 1-4.534 0 7.18 7.18 0 0 0-4.077-1.268 7.18 7.18 0 0 0-4.077 1.268 3.844 3.844 0 0 1-4.534 0 6.735 6.735 0 0 0-4.072-1.269h-1.742v3.339h1.69c.819-.022 1.62.239 2.267.738a7.163 7.163 0 0 0 8.144 0 3.577 3.577 0 0 1 2.266-.738 3.535 3.535 0 0 1 2.267.738 7.186 7.186 0 0 0 8.155 0Z"/></g><g fill="#1D2130" opacity=".6"><path d="M951.158 9.823h3.387v13.65h-3.387V9.823Zm4.737 8.516c0-3.381 2.11-5.408 5.276-5.408 3.165 0 5.275 2.027 5.275 5.408 0 3.38-2.036 5.428-5.275 5.428-3.239 0-5.276-1.974-5.276-5.428Zm7.196 0c0-1.859-.728-2.95-1.889-2.95-1.16 0-1.878 1.05-1.878 2.95 0 1.9.718 2.94 1.878 2.94 1.161 0 1.91-1.04 1.91-2.93l-.021-.01Zm4.706 5.838h3.271a1.748 1.748 0 0 0 1.836 1.05c1.297 0 1.973-.693 1.973-1.722v-1.89h.01a3.226 3.226 0 0 1-1.296 1.407 3.253 3.253 0 0 1-1.869.43c-2.48 0-4.126-1.88-4.126-5.113 0-3.234 1.573-5.25 4.221-5.25a3.253 3.253 0 0 1 1.9.491 3.229 3.229 0 0 1 1.265 1.493h-.095v-1.9h3.356V23.4c0 2.467-2.195 4.01-5.424 4.01-2.933-.01-4.811-1.343-5.001-3.223l-.021-.01Zm7.09-5.838c0-1.649-.759-2.688-1.962-2.688-1.203 0-1.942 1.05-1.942 2.688 0 1.638.728 2.604 1.942 2.604 1.213 0 1.962-.893 1.962-2.604Zm4.696 0c0-3.381 2.11-5.408 5.275-5.408 3.165 0 5.276 2.027 5.276 5.408 0 3.38-2.047 5.428-5.276 5.428-3.229 0-5.254-1.974-5.254-5.428h-.021Zm7.195 0c0-1.859-.738-2.95-1.888-2.95s-1.878 1.05-1.878 2.95c0 1.9.717 2.94 1.878 2.94 1.16 0 1.909-1.04 1.909-2.93l-.021-.01Zm4.727-7.655a1.721 1.721 0 0 1 1.016-1.642 1.737 1.737 0 0 1 1.91.325 1.722 1.722 0 0 1 .409 1.885 1.735 1.735 0 0 1-1.604 1.081 1.67 1.67 0 0 1-1.71-1.638l-.021-.01Zm0 2.478h3.429v10.353h-3.376l-.053-10.353Zm15.765 5.177c0 3.37-1.52 5.323-4.11 5.323-.66.04-1.32-.122-1.88-.465a3.235 3.235 0 0 1-1.281-1.456h-.063v5.103h-3.387v-13.65h3.366v1.848h.063a3.306 3.306 0 0 1 1.262-1.495 3.28 3.28 0 0 1 1.9-.5c2.66-.021 4.19 1.921 4.19 5.302l-.06-.01Zm-3.45 0c0-1.638-.77-2.699-1.96-2.699-1.2 0-1.945 1.05-1.956 2.699-.011 1.648.756 2.688 1.956 2.688 1.19 0 2.02-.977 2.02-2.678l-.06-.01Zm9.23-5.418c2.84 0 4.6 1.333 4.62 3.475h-3.09c0-.745-.62-1.207-1.55-1.207s-1.37.357-1.37.892c0 .536.39.704 1.17.861l2.17.441c2.11.441 2.96 1.281 2.96 2.846 0 2.1-1.95 3.528-4.86 3.528-2.9 0-4.79-1.386-4.92-3.497h3.28c.09.767.7 1.218 1.7 1.218.99 0 1.45-.315 1.45-.871 0-.557-.31-.651-1.13-.82l-1.96-.409c-2.04-.43-3.1-1.49-3.1-3.076.06-2.058 1.83-3.37 4.69-3.37l-.06-.011Zm16.25 10.584h-3.28v-1.943h-.07a2.938 2.938 0 0 1-1.13 1.606c-.55.391-1.22.584-1.89.547a3.628 3.628 0 0 1-2.74-1.117 3.625 3.625 0 0 1-.99-2.779v-6.646h3.39v5.922c0 1.218.64 1.88 1.7 1.88.25-.003.49-.057.71-.161.23-.104.43-.255.59-.442.16-.187.28-.406.35-.643.07-.236.08-.485.05-.729v-5.827h3.37l-.06 10.332Zm1.63-10.343h3.3v1.995h.07c.18-.639.57-1.2 1.11-1.595a3.039 3.039 0 0 1 1.86-.589 2.704 2.704 0 0 1 2.89 2.194h.14c.22-.661.64-1.235 1.21-1.632a3.173 3.173 0 0 1 1.96-.562 3.294 3.294 0 0 1 2.49 1c.33.332.57.728.73 1.162.16.434.22.896.19 1.356v7.024h-3.41v-6.163c0-1.05-.5-1.638-1.46-1.638-.21-.004-.42.039-.62.124-.19.085-.36.212-.51.37-.14.159-.24.346-.3.549-.07.202-.08.416-.05.626v6.132h-3.23V17.32c0-1.05-.52-1.606-1.45-1.606-.21-.002-.43.042-.62.13a1.47 1.47 0 0 0-.83.927c-.07.205-.08.42-.06.633v6.111h-3.38l-.03-10.353ZM944.458 10.716c0-2.09-.634-4.131-1.82-5.856a10.413 10.413 0 0 0-4.823-3.812 10.473 10.473 0 0 0-6.144-.437 10.438 10.438 0 0 0-5.319 3.09h-13.168V31.36h27.802V18.433a10.355 10.355 0 0 0 2.563-3.49c.598-1.33.908-2.77.909-4.227Zm-5.35 0a5.04 5.04 0 0 1-.852 2.814 5.077 5.077 0 0 1-2.28 1.869 5.108 5.108 0 0 1-5.546-1.09 5.036 5.036 0 0 1-1.107-5.517 5.066 5.066 0 0 1 1.873-2.273 5.104 5.104 0 0 1 6.419.625 5.051 5.051 0 0 1 1.493 3.572Zm-3.471 15.32h-17.103V9.025h5.212a9.883 9.883 0 0 0-.158 1.69 10.367 10.367 0 0 0 3.059 7.34 10.471 10.471 0 0 0 7.376 3.044c.54-.003 1.08-.048 1.614-.136v5.071Z"/></g><g fill="#1D2130" opacity=".6"><path d="M1176.18 7.635h3.16v15.317h-3.16V7.635ZM1181.11 17.705c0-1.102.33-2.18.94-3.095a5.534 5.534 0 0 1 5.7-2.36c1.07.217 2.06.75 2.83 1.531.78.782 1.3 1.776 1.51 2.858.21 1.082.1 2.201-.33 3.218a5.556 5.556 0 0 1-2.05 2.49c-.92.608-1.99.93-3.09.923a5.417 5.417 0 0 1-2.12-.413 5.583 5.583 0 0 1-1.8-1.206 5.653 5.653 0 0 1-1.19-1.812 5.566 5.566 0 0 1-.4-2.134Zm7.94 0a2.345 2.345 0 0 0-.44-1.325 2.395 2.395 0 0 0-3.69-.298c-.33.34-.55.771-.64 1.238-.09.467-.04.95.15 1.388.18.438.49.811.88 1.074.4.263.86.403 1.33.403.33.007.65-.054.94-.177.3-.124.57-.308.79-.54.23-.233.4-.51.51-.813.12-.303.17-.627.15-.95h.02ZM1204.65 12.458v9.975c0 3.519-2.74 5.013-5.51 5.013a5.256 5.256 0 0 1-4.95-2.544l2.67-1.547c.21.438.56.8.98 1.036.43.237.92.338 1.4.289.31.038.62.007.92-.09.29-.098.56-.26.79-.475.23-.214.4-.476.51-.767.12-.291.17-.604.15-.915v-.965a3.75 3.75 0 0 1-1.37 1.04c-.53.236-1.11.344-1.68.317-1.4 0-2.75-.559-3.73-1.552a5.314 5.314 0 0 1-1.55-3.748c0-1.406.56-2.754 1.55-3.748a5.245 5.245 0 0 1 3.73-1.552c.57-.028 1.15.08 1.68.316s1 .592 1.37 1.04v-1.06l3.04-.063Zm-3.04 5.035a2.528 2.528 0 0 0-.38-1.441 2.503 2.503 0 0 0-1.11-.983 2.527 2.527 0 0 0-1.47-.19c-.5.087-.96.32-1.33.671-.36.351-.61.804-.72 1.3-.11.497-.06 1.013.12 1.484.19.471.52.875.94 1.16.41.284.91.437 1.41.437.33.024.66-.022.97-.135.32-.112.6-.29.84-.519.24-.23.42-.507.55-.815.13-.307.18-.637.18-.969ZM1206.44 17.705c0-1.101.32-2.177.93-3.093a5.57 5.57 0 0 1 2.49-2.05 5.51 5.51 0 0 1 3.2-.314c1.08.215 2.06.746 2.84 1.526a5.58 5.58 0 0 1 1.51 2.852c.21 1.08.1 2.2-.32 3.216a5.558 5.558 0 0 1-2.04 2.495c-.92.61-1.99.935-3.08.933a5.45 5.45 0 0 1-3.93-1.615 5.517 5.517 0 0 1-1.2-1.813 5.58 5.58 0 0 1-.4-2.137Zm7.93 0a2.416 2.416 0 0 0-.43-1.326 2.47 2.47 0 0 0-1.1-.862 2.376 2.376 0 0 0-1.38-.11 2.39 2.39 0 0 0-1.22.679c-.33.341-.55.773-.64 1.24-.08.468-.03.951.15 1.389.19.438.5.81.89 1.072.4.262.86.4 1.34.398.32.007.64-.054.94-.177.29-.124.56-.308.79-.54.22-.233.39-.51.51-.813.11-.303.16-.627.14-.95h.01ZM1218.96 9.649c0-.373.11-.738.32-1.048.2-.31.5-.552.84-.695a1.88 1.88 0 0 1 2.05.409c.26.264.44.6.51.966s.04.745-.11 1.09a1.867 1.867 0 0 1-1.73 1.165c-.5-.006-.97-.206-1.32-.559a1.94 1.94 0 0 1-.56-1.328Zm.31 2.809h3.16v10.494h-3.16V12.458ZM1235.98 17.705a5.314 5.314 0 0 1-1.36 3.834 5.33 5.33 0 0 1-1.67 1.234c-.63.297-1.31.466-2 .497a3.918 3.918 0 0 1-3.17-1.283v5.184h-3.16V12.458h3.16v.986a3.923 3.923 0 0 1 3.17-1.272c.69.031 1.37.2 2 .494a5.34 5.34 0 0 1 2.72 2.995c.24.654.34 1.349.31 2.044Zm-3.16 0c-.02-.492-.17-.97-.46-1.373a2.461 2.461 0 0 0-1.13-.893 2.482 2.482 0 0 0-2.69.587 2.524 2.524 0 0 0-.51 2.721c.2.454.52.84.93 1.11.41.272.89.415 1.38.413a2.37 2.37 0 0 0 1.81-.724c.23-.242.41-.532.53-.849.11-.317.16-.655.14-.992ZM1245.61 19.804c0 2.417-2.11 3.445-4.34 3.445a4.548 4.548 0 0 1-2.63-.558 4.644 4.644 0 0 1-1.87-1.944l2.72-1.547c.11.378.35.707.67.933.32.226.71.334 1.1.307.75 0 1.13-.233 1.13-.657 0-1.156-5.14-.541-5.14-4.177 0-2.29 1.92-3.434 4.09-3.434.83-.037 1.65.15 2.38.545.72.393 1.33.978 1.76 1.691l-2.73 1.442a1.524 1.524 0 0 0-1.4-.922c-.55 0-.87.212-.87.583 0 1.208 5.13.413 5.13 4.293ZM1257.08 12.458v10.494h-3.16v-.986c-.36.437-.82.782-1.34 1.008a3.54 3.54 0 0 1-1.64.296c-2.11 0-3.91-1.516-3.91-4.346v-6.466h3.16v5.989c-.02.25.01.503.09.741s.21.455.39.636a1.699 1.699 0 0 0 1.35.531c1.14 0 1.94-.678 1.94-2.12v-5.777h3.12ZM1275.02 16.507v6.445h-3.17v-6.17c0-1.06-.49-1.716-1.49-1.716-1.01 0-1.64.731-1.64 1.971v5.915h-3.16v-6.17c0-1.06-.5-1.716-1.5-1.716-1.01 0-1.64.731-1.64 1.971v5.915h-3.16V12.458h3.16v.965a3.26 3.26 0 0 1 1.25-.982 3.2 3.2 0 0 1 1.56-.27 3.1 3.1 0 0 1 1.55.327c.48.241.88.604 1.18 1.052.35-.468.81-.84 1.34-1.081a3.422 3.422 0 0 1 1.69-.297c2.47 0 4.03 1.717 4.03 4.335ZM1157.32 4.879V.374h-14.14v30.952h14.14v-4.505c-2.89 0-5.67-1.156-7.72-3.213a10.99 10.99 0 0 1-3.2-7.758c0-2.91 1.15-5.7 3.2-7.758a10.905 10.905 0 0 1 7.72-3.213ZM1157.32 4.879v21.942c2.9 0 5.68-1.156 7.72-3.213a10.99 10.99 0 0 0 3.2-7.758c0-2.91-1.15-5.7-3.2-7.758a10.87 10.87 0 0 0-7.72-3.213ZM1277.68 12.394c1.28 0 2.32-1.044 2.32-2.332a2.327 2.327 0 0 0-2.32-2.332 2.327 2.327 0 0 0-2.32 2.332 2.327 2.327 0 0 0 2.32 2.332Z"/></g></svg>